<svg xmlns="http://www.w3.org/2000/svg" xmlns:xlink="http://www.w3.org/1999/xlink" version="1.1" x="0px" y="0px" viewBox="0 0 64 64" enable-background="new 0 0 64 64" xml:space="preserve"><g><path d="M45.994,19.931c0-4.638-5.299-15.899-7.121-17.059C37.182,1.796,32.646,2.004,32,2.039   c-0.645-0.035-5.184-0.243-6.873,0.833c-1.822,1.159-7.123,12.421-7.123,17.059c0,3.061,1.238,6.411,4.02,10.333   c1.148-1.878,2.797-4.549,3.592-5.708c0.99-1.447,3.459-4.696,5.002-6.713c-0.998-1.418-1.844-2.628-2.344-3.378   c-1.986-2.98-2.318-4.968-2.318-4.968h5.963h0.164h5.963c0,0-0.333,1.987-2.32,4.968c-1.988,2.981-9.438,13.25-10.268,14.906   c-0.828,1.656-11.926,19.213-12.918,23.188L21.814,62c0,0,7.783-18.219,14.572-25.175C43.178,29.868,45.994,24.568,45.994,19.931z"></path><path d="M41.781,34.811c-1.535,1.559-3.569,3.662-4.418,4.709c-0.877,1.085-2.504,3.486-3.817,5.468   C38.258,52.807,42.186,62,42.186,62l9.275-9.441C50.783,49.845,45.396,40.803,41.781,34.811z"></path></g></svg>